<svg width="22" height="23" viewBox="0 0 22 23" fill="none" xmlns="http://www.w3.org/2000/svg">
<path fill-rule="evenodd" clip-rule="evenodd" d="M10.9996 0C5.31894 0 0.713867 4.99789 0.713867 11.1631C0.713867 17.3283 5.31894 22.3262 10.9996 22.3262C16.6802 22.3262 21.2853 17.3283 21.2853 11.1631C21.2853 4.99789 16.6802 0 10.9996 0ZM16.3733 9.95791C16.4475 10.349 16.4853 10.7519 16.4853 11.1548C16.4853 11.5575 16.4475 11.9596 16.3733 12.3515C16.301 12.7341 16.1939 13.1097 16.0535 13.4688C15.9164 13.8216 15.7463 14.1615 15.5475 14.4785C15.3517 14.7935 15.1261 15.089 14.8784 15.3584C14.63 15.6267 14.3568 15.8708 14.0667 16.0842C13.7737 16.2984 13.46 16.4827 13.1348 16.6323C12.8034 16.7838 12.4565 16.8999 12.1043 16.9783C11.7427 17.059 11.3709 17.1002 10.9993 17.1002C10.6275 17.1002 10.2557 17.059 9.89464 16.9783C9.54186 16.8999 9.19496 16.7838 8.86387 16.6323C8.53868 16.4827 8.22473 16.2984 7.93168 16.0842C7.64158 15.8708 7.36835 15.6267 7.12057 15.3584C6.87253 15.089 6.64697 14.7935 6.45089 14.4785C6.2532 14.1615 6.08282 13.8216 5.94515 13.4688C5.80476 13.1097 5.69736 12.7341 5.62477 12.3515C5.55138 11.9596 5.51387 11.5575 5.51387 11.1548C5.51387 10.7519 5.55136 10.349 5.62479 9.95791C5.69738 9.57528 5.80479 9.19906 5.94517 8.84055C6.08284 8.48755 6.25322 8.14732 6.45091 7.8303C6.64699 7.51504 6.87255 7.22008 7.12059 6.95038C7.36837 6.68213 7.6416 6.43859 7.9317 6.22551C8.22475 6.01038 8.5387 5.82607 8.86389 5.67626C9.19499 5.5244 9.54186 5.408 9.89466 5.33021C10.2557 5.2501 10.6276 5.20945 10.9994 5.20945C11.3709 5.20945 11.7427 5.2501 12.1043 5.33021C12.4565 5.40803 12.8034 5.52442 13.1348 5.67626C13.46 5.82604 13.7737 6.01038 14.0667 6.22551C14.3568 6.43859 14.6301 6.68213 14.8784 6.95038C15.1262 7.22008 15.3517 7.51504 15.5475 7.8303C15.7463 8.14732 15.9164 8.48757 16.0535 8.84055C16.1939 9.19906 16.301 9.57528 16.3733 9.95791Z" fill="#FF2647"/>
<path fill-rule="evenodd" clip-rule="evenodd" d="M14.0928 7.34502L14.0932 7.34435C13.2684 6.55616 12.1854 6.07806 10.9993 6.07806C10.6186 6.07806 10.2492 6.128 9.89536 6.22031L9.90298 6.23137C10.0139 6.3924 10.8676 7.63151 11.6467 9.18195C13.3999 8.46964 14.0706 7.38093 14.0928 7.34502ZM14.6169 7.93C14.5986 7.95826 13.8451 9.12505 12.0073 9.93849C12.116 10.1806 12.2213 10.427 12.3185 10.6747C12.3531 10.7635 12.3868 10.8506 12.4198 10.9377C13.9983 10.7224 15.554 11.0736 15.6769 11.1013L15.6825 11.1026C15.6717 9.899 15.2745 8.79439 14.6171 7.9296L14.6169 7.93ZM12.7053 11.7389C13.3198 13.569 13.5695 15.0594 13.6172 15.3654C14.6691 14.5961 15.4162 13.3745 15.6246 11.9595C15.5282 11.9259 14.2175 11.4762 12.7053 11.7389ZM11.8275 11.9741C12.4867 13.8309 12.7589 15.3857 12.8283 15.8293C12.266 16.0885 11.648 16.2316 10.9993 16.2316C9.91278 16.2316 8.91523 15.8272 8.1199 15.157C8.12967 15.134 9.03233 13.0294 11.7964 11.9851C11.8029 11.9825 11.8095 11.9803 11.8161 11.978L11.8275 11.9741ZM11.1281 10.27C11.2623 10.5551 11.3906 10.8443 11.5082 11.1328C11.4466 11.1519 11.3844 11.1717 11.3234 11.1938C8.79522 12.0798 7.51317 14.5447 7.51478 14.5473C6.76849 13.6482 6.31445 12.4592 6.31445 11.1549C6.31445 11.1172 6.3156 11.0804 6.31675 11.0433L6.31821 10.9929C6.40124 10.9963 8.71593 11.0527 11.1281 10.27ZM10.74 9.48822C9.92912 7.92697 9.06282 6.65287 9.0004 6.56256C7.69398 7.23114 6.71894 8.53575 6.4149 10.108C6.4162 10.108 6.4177 10.1081 6.4194 10.1081C6.57951 10.1097 8.51431 10.1291 10.74 9.48822Z" fill="#FF2647"/>
</svg>
