<svg width="21" height="23" viewBox="0 0 21 23" fill="none" xmlns="http://www.w3.org/2000/svg">
<path fill-rule="evenodd" clip-rule="evenodd" d="M10.2857 0C4.60507 0 0 4.99789 0 11.1631C0 17.3283 4.60507 22.3262 10.2857 22.3262C15.9664 22.3262 20.5714 17.3283 20.5714 11.1631C20.5714 4.99789 15.9664 0 10.2857 0ZM8.02426 5.24542C8.60941 5.21652 8.79638 5.20945 10.2862 5.20945H10.2845C11.7748 5.20945 11.9611 5.21652 12.5463 5.24542C13.1303 5.27444 13.5291 5.37478 13.8788 5.52202C14.24 5.67396 14.5451 5.87738 14.8503 6.20855C15.1554 6.53948 15.3429 6.87165 15.4834 7.26323C15.6183 7.64179 15.7109 8.07442 15.7383 8.70825C15.7646 9.34331 15.7714 9.54623 15.7714 11.1632C15.7714 12.7801 15.7646 12.9825 15.7383 13.6176C15.7109 14.2512 15.6183 14.6839 15.4834 15.0626C15.3429 15.4541 15.1554 15.7862 14.8503 16.1171C14.5455 16.4483 14.2399 16.6522 13.8792 16.8043C13.5301 16.9515 13.1311 17.0519 12.5471 17.0809C11.9619 17.1098 11.7755 17.1169 10.2855 17.1169C8.79581 17.1169 8.60895 17.1098 8.0238 17.0809C7.43991 17.0519 7.04117 16.9515 6.69213 16.8043C6.33156 16.6522 6.0255 16.4483 5.7207 16.1171C5.41566 15.7862 5.22823 15.4541 5.088 15.0625C4.95246 14.6839 4.86 14.2513 4.83314 13.6175C4.80663 12.9824 4.8 12.7801 4.8 11.1632C4.8 9.54623 4.80686 9.34318 4.83303 8.70812C4.85931 8.07455 4.95189 7.64179 5.08789 7.2631C5.22846 6.87165 5.41589 6.53948 5.72104 6.20855C6.02596 5.8775 6.33202 5.67408 6.69282 5.52202C7.04162 5.37478 7.44026 5.27444 8.02426 5.24542Z" fill="#FF2647"/>
<path fill-rule="evenodd" clip-rule="evenodd" d="M9.79413 6.28237C9.88969 6.28221 9.99248 6.28226 10.1034 6.28231L10.2863 6.28237C11.751 6.28237 11.9246 6.28808 12.503 6.31661C13.0378 6.34315 13.3281 6.44015 13.5215 6.52164C13.7775 6.62955 13.96 6.75855 14.1519 6.96693C14.3439 7.17531 14.4628 7.37376 14.5624 7.6516C14.6375 7.86122 14.727 8.17627 14.7513 8.75676C14.7776 9.38438 14.7833 9.57292 14.7833 11.1618C14.7833 12.7507 14.7776 12.9392 14.7513 13.5669C14.7269 14.1474 14.6375 14.4624 14.5624 14.672C14.463 14.9499 14.3439 15.1477 14.1519 15.356C13.9599 15.5643 13.7776 15.6933 13.5215 15.8012C13.3283 15.8831 13.0378 15.9799 12.503 16.0064C11.9247 16.0349 11.751 16.0411 10.2863 16.0411C8.82144 16.0411 8.64783 16.0349 8.06954 16.0064C7.53468 15.9796 7.24439 15.8826 7.0509 15.8011C6.7949 15.6932 6.61204 15.5642 6.42004 15.3558C6.22804 15.1475 6.10918 14.9495 6.00952 14.6715C5.93444 14.4619 5.84495 14.1469 5.82061 13.5664C5.79432 12.9388 5.78906 12.7502 5.78906 11.1603C5.78906 9.57044 5.79432 9.38289 5.82061 8.75527C5.84506 8.17479 5.93444 7.85973 6.00952 7.64987C6.10895 7.37203 6.22804 7.17357 6.42004 6.96519C6.61204 6.75681 6.7949 6.62781 7.0509 6.51965C7.24428 6.43779 7.53468 6.34104 8.06954 6.31437C8.57561 6.28957 8.77172 6.28212 9.79413 6.28088V6.28237ZM13.2145 7.27094C12.8511 7.27094 12.5562 7.59058 12.5562 7.98513C12.5562 8.37957 12.8511 8.69958 13.2145 8.69958C13.5779 8.69958 13.8728 8.37957 13.8728 7.98513C13.8728 7.5907 13.5779 7.27069 13.2145 7.27069V7.27094ZM7.46908 11.1632C7.46908 9.47472 8.7304 8.10576 10.2861 8.1057C11.8419 8.1057 13.103 9.47468 13.103 11.1632C13.103 12.8517 11.842 14.22 10.2863 14.22C8.73046 14.22 7.46908 12.8517 7.46908 11.1632Z" fill="#FF2647"/>
<path d="M10.2866 9.17859C11.2964 9.17859 12.1152 10.0671 12.1152 11.1632C12.1152 12.2591 11.2964 13.1477 10.2866 13.1477C9.27665 13.1477 8.45801 12.2591 8.45801 11.1632C8.45801 10.0671 9.27665 9.17859 10.2866 9.17859Z" fill="#FF2647"/>
</svg>
