<svg width="22" height="23" viewBox="0 0 22 23" fill="none" xmlns="http://www.w3.org/2000/svg">
<path fill-rule="evenodd" clip-rule="evenodd" d="M11.1431 0C5.46249 0 0.857422 4.99789 0.857422 11.1631C0.857422 17.3283 5.46249 22.3262 11.1431 22.3262C16.8238 22.3262 21.4289 17.3283 21.4289 11.1631C21.4289 4.99789 16.8238 0 11.1431 0ZM5.79526 9.24577H8.12623V16.8468H5.79526V9.24577ZM8.27975 6.89447C8.26462 6.14919 7.77356 5.58155 6.97615 5.58155C6.17874 5.58155 5.65742 6.14919 5.65742 6.89447C5.65742 7.62431 6.16333 8.2083 6.94589 8.2083H6.96079C7.77356 8.2083 8.27975 7.62431 8.27975 6.89447ZM13.8488 9.06728C15.3827 9.06728 16.5326 10.1539 16.5326 12.4886L16.5325 16.8468H14.2016V12.7802C14.2016 11.7588 13.8643 11.0618 13.0205 11.0618C12.3765 11.0618 11.9929 11.5317 11.8245 11.9855C11.7628 12.1482 11.7477 12.3748 11.7477 12.6019V16.847H9.41647C9.41647 16.847 9.44719 9.95921 9.41647 9.24597H11.7477V10.3226C12.0571 9.80504 12.6112 9.06728 13.8488 9.06728Z" fill="#FF2647"/>
</svg>
